<mxfile host="65bd71144e">
    <diagram id="er13rQLLsnJjU3S6Yv1q" name="Page-1">
        <mxGraphModel dx="1229" dy="397" grid="1" gridSize="10" guides="1" tooltips="1" connect="1" arrows="1" fold="1" page="1" pageScale="1" pageWidth="2000" pageHeight="2000" background="#114B5F" math="0" shadow="0">
            <root>
                <mxCell id="0"/>
                <mxCell id="1" parent="0"/>
                <mxCell id="2atE8d0dwEe4wlXLHkkS-1" value="User" style="rounded=1;arcSize=10;whiteSpace=wrap;html=1;align=center;fillColor=#F45B69;strokeColor=#028090;fontColor=#E4FDE1;" parent="1" vertex="1">
                    <mxGeometry x="850" y="370" width="100" height="40" as="geometry"/>
                </mxCell>
                <mxCell id="2atE8d0dwEe4wlXLHkkS-2" value="Course" style="rounded=1;arcSize=10;whiteSpace=wrap;html=1;align=center;fillColor=#F45B69;strokeColor=#028090;fontColor=#E4FDE1;" parent="1" vertex="1">
                    <mxGeometry x="1339" y="370" width="100" height="40" as="geometry"/>
                </mxCell>
                <mxCell id="2atE8d0dwEe4wlXLHkkS-6" value="pick" style="shape=rhombus;perimeter=rhombusPerimeter;whiteSpace=wrap;html=1;align=center;fillColor=#F45B69;strokeColor=#028090;fontColor=#E4FDE1;" parent="1" vertex="1">
                    <mxGeometry x="1099" y="360" width="120" height="60" as="geometry"/>
                </mxCell>
                <mxCell id="2atE8d0dwEe4wlXLHkkS-29" value="POM" style="shape=ext;margin=3;double=1;whiteSpace=wrap;html=1;align=center;fillColor=#F45B69;strokeColor=#028090;fontColor=#E4FDE1;" parent="1" vertex="1">
                    <mxGeometry x="1389" y="770" width="100" height="40" as="geometry"/>
                </mxCell>
                <mxCell id="2atE8d0dwEe4wlXLHkkS-30" value="Course-POM" style="shape=rhombus;double=1;perimeter=rhombusPerimeter;whiteSpace=wrap;html=1;align=center;fillColor=#F45B69;strokeColor=#028090;fontColor=#E4FDE1;" parent="1" vertex="1">
                    <mxGeometry x="1379" y="610" width="120" height="60" as="geometry"/>
                </mxCell>
                <mxCell id="2atE8d0dwEe4wlXLHkkS-35" value="Transaction" style="shape=ext;margin=3;double=1;whiteSpace=wrap;html=1;align=center;fillColor=#F45B69;strokeColor=#028090;fontColor=#E4FDE1;" parent="1" vertex="1">
                    <mxGeometry x="750" y="770" width="100" height="40" as="geometry"/>
                </mxCell>
                <mxCell id="2atE8d0dwEe4wlXLHkkS-36" value="User-T" style="shape=rhombus;double=1;perimeter=rhombusPerimeter;whiteSpace=wrap;html=1;align=center;fillColor=#F45B69;strokeColor=#028090;fontColor=#E4FDE1;" parent="1" vertex="1">
                    <mxGeometry x="740" y="610" width="120" height="60" as="geometry"/>
                </mxCell>
                <mxCell id="2atE8d0dwEe4wlXLHkkS-39" value="Email" style="ellipse;whiteSpace=wrap;html=1;align=center;fontStyle=4;fillColor=#F45B69;strokeColor=#028090;fontColor=#E4FDE1;" parent="1" vertex="1">
                    <mxGeometry x="999" y="270" width="100" height="40" as="geometry"/>
                </mxCell>
                <mxCell id="2atE8d0dwEe4wlXLHkkS-40" value="Lastname" style="ellipse;whiteSpace=wrap;html=1;align=center;fillColor=#F45B69;strokeColor=#028090;fontColor=#E4FDE1;" parent="1" vertex="1">
                    <mxGeometry x="939" y="230" width="100" height="40" as="geometry"/>
                </mxCell>
                <mxCell id="2atE8d0dwEe4wlXLHkkS-41" value="Firstname" style="ellipse;whiteSpace=wrap;html=1;align=center;fillColor=#F45B69;strokeColor=#028090;fontColor=#E4FDE1;" parent="1" vertex="1">
                    <mxGeometry x="830" y="230" width="100" height="40" as="geometry"/>
                </mxCell>
                <mxCell id="2atE8d0dwEe4wlXLHkkS-42" value="Coin" style="ellipse;whiteSpace=wrap;html=1;align=center;fillColor=#F45B69;strokeColor=#028090;fontColor=#E4FDE1;" parent="1" vertex="1">
                    <mxGeometry x="699" y="370" width="100" height="40" as="geometry"/>
                </mxCell>
                <mxCell id="2atE8d0dwEe4wlXLHkkS-45" value="Password" style="ellipse;whiteSpace=wrap;html=1;align=center;fillColor=#F45B69;strokeColor=#028090;fontColor=#E4FDE1;" parent="1" vertex="1">
                    <mxGeometry x="750" y="270" width="100" height="40" as="geometry"/>
                </mxCell>
                <mxCell id="2atE8d0dwEe4wlXLHkkS-46" value="DOB" style="ellipse;whiteSpace=wrap;html=1;align=center;fillColor=#F45B69;strokeColor=#028090;fontColor=#E4FDE1;" parent="1" vertex="1">
                    <mxGeometry x="699" y="320" width="100" height="40" as="geometry"/>
                </mxCell>
                <mxCell id="2atE8d0dwEe4wlXLHkkS-49" value="" style="endArrow=none;html=1;rounded=0;exitX=1;exitY=0.5;exitDx=0;exitDy=0;strokeColor=#028090;fontColor=#E4FDE1;labelBackgroundColor=#114B5F;" parent="1" source="2atE8d0dwEe4wlXLHkkS-42" edge="1">
                    <mxGeometry relative="1" as="geometry">
                        <mxPoint x="909" y="330" as="sourcePoint"/>
                        <mxPoint x="849" y="390" as="targetPoint"/>
                    </mxGeometry>
                </mxCell>
                <mxCell id="2atE8d0dwEe4wlXLHkkS-51" value="" style="endArrow=none;html=1;rounded=0;exitX=1;exitY=0.5;exitDx=0;exitDy=0;entryX=0;entryY=0;entryDx=0;entryDy=0;strokeColor=#028090;fontColor=#E4FDE1;labelBackgroundColor=#114B5F;" parent="1" source="2atE8d0dwEe4wlXLHkkS-46" target="2atE8d0dwEe4wlXLHkkS-1" edge="1">
                    <mxGeometry relative="1" as="geometry">
                        <mxPoint x="824.0000000000002" y="310" as="sourcePoint"/>
                        <mxPoint x="918.9999999999998" y="280" as="targetPoint"/>
                    </mxGeometry>
                </mxCell>
                <mxCell id="2atE8d0dwEe4wlXLHkkS-53" value="" style="endArrow=none;html=1;rounded=0;exitX=1;exitY=1;exitDx=0;exitDy=0;entryX=0.25;entryY=0;entryDx=0;entryDy=0;strokeColor=#028090;fontColor=#E4FDE1;labelBackgroundColor=#114B5F;" parent="1" source="2atE8d0dwEe4wlXLHkkS-45" target="2atE8d0dwEe4wlXLHkkS-1" edge="1">
                    <mxGeometry relative="1" as="geometry">
                        <mxPoint x="821.5000000000002" y="305" as="sourcePoint"/>
                        <mxPoint x="916.4999999999998" y="275" as="targetPoint"/>
                    </mxGeometry>
                </mxCell>
                <mxCell id="2atE8d0dwEe4wlXLHkkS-54" value="" style="endArrow=none;html=1;rounded=0;exitX=0.943;exitY=-0.021;exitDx=0;exitDy=0;entryX=0.5;entryY=1;entryDx=0;entryDy=0;exitPerimeter=0;strokeColor=#028090;fontColor=#E4FDE1;labelBackgroundColor=#114B5F;" parent="1" source="2atE8d0dwEe4wlXLHkkS-1" target="2atE8d0dwEe4wlXLHkkS-39" edge="1">
                    <mxGeometry relative="1" as="geometry">
                        <mxPoint x="989.0000000000002" y="320" as="sourcePoint"/>
                        <mxPoint x="1083.9999999999998" y="290" as="targetPoint"/>
                    </mxGeometry>
                </mxCell>
                <mxCell id="2atE8d0dwEe4wlXLHkkS-55" value="" style="endArrow=none;html=1;rounded=0;exitX=0.75;exitY=0;exitDx=0;exitDy=0;entryX=0.43;entryY=1.05;entryDx=0;entryDy=0;strokeColor=#028090;fontColor=#E4FDE1;labelBackgroundColor=#114B5F;entryPerimeter=0;" parent="1" source="2atE8d0dwEe4wlXLHkkS-1" target="2atE8d0dwEe4wlXLHkkS-40" edge="1">
                    <mxGeometry relative="1" as="geometry">
                        <mxPoint x="933.0000000000002" y="310" as="sourcePoint"/>
                        <mxPoint x="1027.9999999999998" y="280" as="targetPoint"/>
                    </mxGeometry>
                </mxCell>
                <mxCell id="2atE8d0dwEe4wlXLHkkS-56" value="" style="endArrow=none;html=1;rounded=0;exitX=0.5;exitY=0;exitDx=0;exitDy=0;entryX=0.5;entryY=1;entryDx=0;entryDy=0;strokeColor=#028090;fontColor=#E4FDE1;labelBackgroundColor=#114B5F;" parent="1" source="2atE8d0dwEe4wlXLHkkS-1" target="2atE8d0dwEe4wlXLHkkS-41" edge="1">
                    <mxGeometry relative="1" as="geometry">
                        <mxPoint x="879.0000000000002" y="510" as="sourcePoint"/>
                        <mxPoint x="973.9999999999998" y="480" as="targetPoint"/>
                    </mxGeometry>
                </mxCell>
                <mxCell id="2atE8d0dwEe4wlXLHkkS-58" value="Edit-username" style="ellipse;whiteSpace=wrap;html=1;align=center;fillColor=#F45B69;strokeColor=#028090;fontColor=#E4FDE1;" parent="1" vertex="1">
                    <mxGeometry x="1093" y="680" width="100" height="40" as="geometry"/>
                </mxCell>
                <mxCell id="2atE8d0dwEe4wlXLHkkS-59" value="Double-Coin" style="ellipse;whiteSpace=wrap;html=1;align=center;fillColor=#F45B69;strokeColor=#028090;fontColor=#E4FDE1;" parent="1" vertex="1">
                    <mxGeometry x="1259" y="570" width="100" height="40" as="geometry"/>
                </mxCell>
                <mxCell id="2atE8d0dwEe4wlXLHkkS-60" value="" style="endArrow=none;html=1;rounded=0;exitX=0.5;exitY=0;exitDx=0;exitDy=0;strokeColor=#028090;fontColor=#E4FDE1;labelBackgroundColor=#114B5F;" parent="1" source="2atE8d0dwEe4wlXLHkkS-58" target="17" edge="1">
                    <mxGeometry relative="1" as="geometry">
                        <mxPoint x="979.0000000000002" y="640" as="sourcePoint"/>
                        <mxPoint x="1119" y="600" as="targetPoint"/>
                    </mxGeometry>
                </mxCell>
                <mxCell id="2atE8d0dwEe4wlXLHkkS-61" value="" style="endArrow=none;html=1;rounded=0;exitX=0;exitY=0.5;exitDx=0;exitDy=0;strokeColor=#028090;fontColor=#E4FDE1;labelBackgroundColor=#114B5F;" parent="1" source="2atE8d0dwEe4wlXLHkkS-59" target="17" edge="1">
                    <mxGeometry relative="1" as="geometry">
                        <mxPoint x="989.0000000000002" y="650" as="sourcePoint"/>
                        <mxPoint x="1169" y="580" as="targetPoint"/>
                    </mxGeometry>
                </mxCell>
                <mxCell id="2atE8d0dwEe4wlXLHkkS-63" value="Priority" style="ellipse;whiteSpace=wrap;html=1;align=center;fillColor=#F45B69;strokeColor=#028090;fontColor=#E4FDE1;" parent="1" vertex="1">
                    <mxGeometry x="1439" y="290" width="100" height="40" as="geometry"/>
                </mxCell>
                <mxCell id="2atE8d0dwEe4wlXLHkkS-64" value="" style="endArrow=none;html=1;rounded=0;entryX=0.5;entryY=0;entryDx=0;entryDy=0;exitX=0.5;exitY=1;exitDx=0;exitDy=0;strokeColor=#028090;fontColor=#E4FDE1;labelBackgroundColor=#114B5F;" parent="1" source="2atE8d0dwEe4wlXLHkkS-67" target="2atE8d0dwEe4wlXLHkkS-2" edge="1">
                    <mxGeometry relative="1" as="geometry">
                        <mxPoint x="1389" y="270" as="sourcePoint"/>
                        <mxPoint x="1459" y="300" as="targetPoint"/>
                    </mxGeometry>
                </mxCell>
                <mxCell id="2atE8d0dwEe4wlXLHkkS-65" value="" style="endArrow=none;html=1;rounded=0;exitX=0.75;exitY=0;exitDx=0;exitDy=0;entryX=0;entryY=1;entryDx=0;entryDy=0;strokeColor=#028090;fontColor=#E4FDE1;labelBackgroundColor=#114B5F;" parent="1" source="2atE8d0dwEe4wlXLHkkS-2" target="2atE8d0dwEe4wlXLHkkS-63" edge="1">
                    <mxGeometry relative="1" as="geometry">
                        <mxPoint x="1449" y="360" as="sourcePoint"/>
                        <mxPoint x="1609" y="360" as="targetPoint"/>
                    </mxGeometry>
                </mxCell>
                <mxCell id="2atE8d0dwEe4wlXLHkkS-67" value="Name" style="ellipse;whiteSpace=wrap;html=1;align=center;fontStyle=4;fillColor=#F45B69;strokeColor=#028090;fontColor=#E4FDE1;" parent="1" vertex="1">
                    <mxGeometry x="1339" y="250" width="100" height="40" as="geometry"/>
                </mxCell>
                <mxCell id="2atE8d0dwEe4wlXLHkkS-68" value="time" style="ellipse;whiteSpace=wrap;html=1;align=center;fillColor=#F45B69;strokeColor=#028090;fontColor=#E4FDE1;" parent="1" vertex="1">
                    <mxGeometry x="1269" y="840" width="100" height="40" as="geometry"/>
                </mxCell>
                <mxCell id="2atE8d0dwEe4wlXLHkkS-70" value="Date" style="ellipse;whiteSpace=wrap;html=1;align=center;fillColor=#F45B69;strokeColor=#028090;fontColor=#E4FDE1;" parent="1" vertex="1">
                    <mxGeometry x="1509" y="840" width="100" height="40" as="geometry"/>
                </mxCell>
                <mxCell id="2atE8d0dwEe4wlXLHkkS-72" value="" style="endArrow=none;html=1;rounded=0;entryX=0;entryY=1;entryDx=0;entryDy=0;exitX=1;exitY=0;exitDx=0;exitDy=0;strokeColor=#028090;fontColor=#E4FDE1;labelBackgroundColor=#114B5F;" parent="1" source="2atE8d0dwEe4wlXLHkkS-68" target="2atE8d0dwEe4wlXLHkkS-29" edge="1">
                    <mxGeometry relative="1" as="geometry">
                        <mxPoint x="1169" y="760" as="sourcePoint"/>
                        <mxPoint x="1329" y="760" as="targetPoint"/>
                    </mxGeometry>
                </mxCell>
                <mxCell id="2atE8d0dwEe4wlXLHkkS-75" value="&lt;span style=&quot;border-bottom: 1px dotted&quot;&gt;PID&lt;/span&gt;" style="ellipse;whiteSpace=wrap;html=1;align=center;fillColor=#F45B69;strokeColor=#028090;fontColor=#E4FDE1;" parent="1" vertex="1">
                    <mxGeometry x="1389" y="880" width="100" height="40" as="geometry"/>
                </mxCell>
                <mxCell id="2atE8d0dwEe4wlXLHkkS-76" value="" style="endArrow=none;html=1;rounded=0;exitX=0.5;exitY=1;exitDx=0;exitDy=0;entryX=0.5;entryY=0;entryDx=0;entryDy=0;strokeColor=#028090;fontColor=#E4FDE1;labelBackgroundColor=#114B5F;" parent="1" source="2atE8d0dwEe4wlXLHkkS-29" target="2atE8d0dwEe4wlXLHkkS-75" edge="1">
                    <mxGeometry relative="1" as="geometry">
                        <mxPoint x="1419" y="840" as="sourcePoint"/>
                        <mxPoint x="1579" y="840" as="targetPoint"/>
                    </mxGeometry>
                </mxCell>
                <mxCell id="2atE8d0dwEe4wlXLHkkS-77" value="" style="endArrow=none;html=1;rounded=0;entryX=0;entryY=0;entryDx=0;entryDy=0;exitX=1;exitY=1;exitDx=0;exitDy=0;strokeColor=#028090;fontColor=#E4FDE1;labelBackgroundColor=#114B5F;" parent="1" source="2atE8d0dwEe4wlXLHkkS-29" target="2atE8d0dwEe4wlXLHkkS-70" edge="1">
                    <mxGeometry relative="1" as="geometry">
                        <mxPoint x="1429" y="850" as="sourcePoint"/>
                        <mxPoint x="1589" y="850" as="targetPoint"/>
                    </mxGeometry>
                </mxCell>
                <mxCell id="2atE8d0dwEe4wlXLHkkS-79" value="Coin-amount" style="ellipse;whiteSpace=wrap;html=1;align=center;fillColor=#F45B69;strokeColor=#028090;fontColor=#E4FDE1;" parent="1" vertex="1">
                    <mxGeometry x="685" y="880" width="100" height="40" as="geometry"/>
                </mxCell>
                <mxCell id="2atE8d0dwEe4wlXLHkkS-80" value="Cash-amount" style="ellipse;whiteSpace=wrap;html=1;align=center;fillColor=#F45B69;strokeColor=#028090;fontColor=#E4FDE1;" parent="1" vertex="1">
                    <mxGeometry x="830" y="880" width="100" height="40" as="geometry"/>
                </mxCell>
                <mxCell id="2atE8d0dwEe4wlXLHkkS-81" value="&lt;span style=&quot;border-bottom: 1px dotted&quot;&gt;TID&lt;/span&gt;" style="ellipse;whiteSpace=wrap;html=1;align=center;fillColor=#F45B69;strokeColor=#028090;fontColor=#E4FDE1;" parent="1" vertex="1">
                    <mxGeometry x="899" y="770" width="100" height="40" as="geometry"/>
                </mxCell>
                <mxCell id="2atE8d0dwEe4wlXLHkkS-82" value="DOT" style="ellipse;whiteSpace=wrap;html=1;align=center;fillColor=#F45B69;strokeColor=#028090;fontColor=#E4FDE1;" parent="1" vertex="1">
                    <mxGeometry x="620" y="770" width="100" height="40" as="geometry"/>
                </mxCell>
                <mxCell id="2atE8d0dwEe4wlXLHkkS-83" value="" style="endArrow=none;html=1;rounded=0;exitX=1;exitY=0.5;exitDx=0;exitDy=0;entryX=0;entryY=0.5;entryDx=0;entryDy=0;strokeColor=#028090;fontColor=#E4FDE1;labelBackgroundColor=#114B5F;" parent="1" source="2atE8d0dwEe4wlXLHkkS-82" target="2atE8d0dwEe4wlXLHkkS-35" edge="1">
                    <mxGeometry relative="1" as="geometry">
                        <mxPoint x="770" y="840" as="sourcePoint"/>
                        <mxPoint x="930" y="840" as="targetPoint"/>
                    </mxGeometry>
                </mxCell>
                <mxCell id="2atE8d0dwEe4wlXLHkkS-84" value="" style="endArrow=none;html=1;rounded=0;exitX=0.5;exitY=0;exitDx=0;exitDy=0;entryX=0.25;entryY=1;entryDx=0;entryDy=0;strokeColor=#028090;fontColor=#E4FDE1;labelBackgroundColor=#114B5F;" parent="1" source="2atE8d0dwEe4wlXLHkkS-79" target="2atE8d0dwEe4wlXLHkkS-35" edge="1">
                    <mxGeometry relative="1" as="geometry">
                        <mxPoint x="730" y="850" as="sourcePoint"/>
                        <mxPoint x="830" y="850" as="targetPoint"/>
                    </mxGeometry>
                </mxCell>
                <mxCell id="2atE8d0dwEe4wlXLHkkS-85" value="" style="endArrow=none;html=1;rounded=0;exitX=0.75;exitY=1;exitDx=0;exitDy=0;entryX=0.5;entryY=0;entryDx=0;entryDy=0;strokeColor=#028090;fontColor=#E4FDE1;labelBackgroundColor=#114B5F;" parent="1" source="2atE8d0dwEe4wlXLHkkS-35" target="2atE8d0dwEe4wlXLHkkS-80" edge="1">
                    <mxGeometry relative="1" as="geometry">
                        <mxPoint x="740" y="860.0000000000001" as="sourcePoint"/>
                        <mxPoint x="840" y="860.0000000000001" as="targetPoint"/>
                    </mxGeometry>
                </mxCell>
                <mxCell id="2atE8d0dwEe4wlXLHkkS-86" value="" style="endArrow=none;html=1;rounded=0;entryX=0;entryY=0.5;entryDx=0;entryDy=0;exitX=1;exitY=0.5;exitDx=0;exitDy=0;strokeColor=#028090;fontColor=#E4FDE1;labelBackgroundColor=#114B5F;" parent="1" source="2atE8d0dwEe4wlXLHkkS-35" target="2atE8d0dwEe4wlXLHkkS-81" edge="1">
                    <mxGeometry relative="1" as="geometry">
                        <mxPoint x="750" y="870.0000000000001" as="sourcePoint"/>
                        <mxPoint x="850" y="870.0000000000001" as="targetPoint"/>
                    </mxGeometry>
                </mxCell>
                <mxCell id="2atE8d0dwEe4wlXLHkkS-87" value="Chart" style="ellipse;whiteSpace=wrap;html=1;align=center;fillColor=#F45B69;strokeColor=#028090;fontColor=#E4FDE1;" parent="1" vertex="1">
                    <mxGeometry x="750" y="470" width="100" height="40" as="geometry"/>
                </mxCell>
                <mxCell id="2atE8d0dwEe4wlXLHkkS-89" value="" style="endArrow=none;html=1;rounded=0;entryX=0.19;entryY=0.975;entryDx=0;entryDy=0;strokeColor=#028090;fontColor=#E4FDE1;labelBackgroundColor=#114B5F;entryPerimeter=0;exitX=0.81;exitY=0;exitDx=0;exitDy=0;exitPerimeter=0;" parent="1" source="2atE8d0dwEe4wlXLHkkS-87" target="2atE8d0dwEe4wlXLHkkS-1" edge="1">
                    <mxGeometry relative="1" as="geometry">
                        <mxPoint x="859" y="440" as="sourcePoint"/>
                        <mxPoint x="919" y="510" as="targetPoint"/>
                    </mxGeometry>
                </mxCell>
                <mxCell id="2" value="Total-time" style="ellipse;whiteSpace=wrap;html=1;align=center;fillColor=#F45B69;strokeColor=#028090;fontColor=#E4FDE1;" parent="1" vertex="1">
                    <mxGeometry x="1469" y="370" width="100" height="40" as="geometry"/>
                </mxCell>
                <mxCell id="3" value="" style="endArrow=none;html=1;rounded=0;exitX=1;exitY=0.5;exitDx=0;exitDy=0;entryX=0;entryY=0.5;entryDx=0;entryDy=0;strokeColor=#028090;fontColor=#E4FDE1;labelBackgroundColor=#114B5F;exitPerimeter=0;" parent="1" source="2atE8d0dwEe4wlXLHkkS-2" target="2" edge="1">
                    <mxGeometry relative="1" as="geometry">
                        <mxPoint x="1424" y="380" as="sourcePoint"/>
                        <mxPoint x="1473.6446609406726" y="334.14213562373084" as="targetPoint"/>
                    </mxGeometry>
                </mxCell>
                <mxCell id="4" value="Category" style="ellipse;whiteSpace=wrap;html=1;align=center;fillColor=#F45B69;strokeColor=#028090;fontColor=#E4FDE1;" parent="1" vertex="1">
                    <mxGeometry x="1239" y="290" width="100" height="40" as="geometry"/>
                </mxCell>
                <mxCell id="5" value="" style="endArrow=none;html=1;rounded=0;exitX=0.25;exitY=0;exitDx=0;exitDy=0;entryX=1;entryY=1;entryDx=0;entryDy=0;strokeColor=#028090;fontColor=#E4FDE1;labelBackgroundColor=#114B5F;" parent="1" source="2atE8d0dwEe4wlXLHkkS-2" target="4" edge="1">
                    <mxGeometry relative="1" as="geometry">
                        <mxPoint x="1434" y="390" as="sourcePoint"/>
                        <mxPoint x="1483.6446609406726" y="344.14213562373084" as="targetPoint"/>
                    </mxGeometry>
                </mxCell>
                <mxCell id="6" value="study-goal" style="ellipse;whiteSpace=wrap;html=1;align=center;fillColor=#F45B69;strokeColor=#028090;fontColor=#E4FDE1;" parent="1" vertex="1">
                    <mxGeometry x="1439" y="440" width="100" height="40" as="geometry"/>
                </mxCell>
                <mxCell id="7" value="" style="endArrow=none;html=1;rounded=0;exitX=0.75;exitY=1;exitDx=0;exitDy=0;entryX=0;entryY=0;entryDx=0;entryDy=0;strokeColor=#028090;fontColor=#E4FDE1;labelBackgroundColor=#114B5F;" parent="1" source="2atE8d0dwEe4wlXLHkkS-2" target="6" edge="1">
                    <mxGeometry relative="1" as="geometry">
                        <mxPoint x="1444" y="400" as="sourcePoint"/>
                        <mxPoint x="1493.6446609406726" y="354.14213562373084" as="targetPoint"/>
                    </mxGeometry>
                </mxCell>
                <mxCell id="8" value="rating" style="ellipse;whiteSpace=wrap;html=1;align=center;fillColor=#F45B69;strokeColor=#028090;fontColor=#E4FDE1;" parent="1" vertex="1">
                    <mxGeometry x="1229" y="770" width="100" height="40" as="geometry"/>
                </mxCell>
                <mxCell id="9" value="" style="endArrow=none;html=1;rounded=0;exitX=1;exitY=0.5;exitDx=0;exitDy=0;entryX=0;entryY=0.5;entryDx=0;entryDy=0;strokeColor=#028090;fontColor=#E4FDE1;labelBackgroundColor=#114B5F;" parent="1" source="8" target="2atE8d0dwEe4wlXLHkkS-29" edge="1">
                    <mxGeometry relative="1" as="geometry">
                        <mxPoint x="1269" y="705.86" as="sourcePoint"/>
                        <mxPoint x="1318.6446609406726" y="660.0021356237309" as="targetPoint"/>
                    </mxGeometry>
                </mxCell>
                <mxCell id="17" value="Store" style="rounded=1;arcSize=10;whiteSpace=wrap;html=1;align=center;" parent="1" vertex="1">
                    <mxGeometry x="1093.0046609406727" y="569.9978643762689" width="100" height="40" as="geometry"/>
                </mxCell>
                <mxCell id="18" value="avatar" style="ellipse;whiteSpace=wrap;html=1;align=center;fillColor=#F45B69;strokeColor=#028090;fontColor=#E4FDE1;" parent="1" vertex="1">
                    <mxGeometry x="1219" y="640" width="100" height="40" as="geometry"/>
                </mxCell>
                <mxCell id="21" value="" style="endArrow=none;html=1;rounded=0;exitX=0;exitY=0;exitDx=0;exitDy=0;strokeColor=#028090;fontColor=#E4FDE1;labelBackgroundColor=#114B5F;" parent="1" source="18" target="17" edge="1">
                    <mxGeometry relative="1" as="geometry">
                        <mxPoint x="1239" y="590" as="sourcePoint"/>
                        <mxPoint x="1169" y="600" as="targetPoint"/>
                    </mxGeometry>
                </mxCell>
                <mxCell id="22" value="dark-mode" style="ellipse;whiteSpace=wrap;html=1;align=center;fillColor=#F45B69;strokeColor=#028090;fontColor=#E4FDE1;" parent="1" vertex="1">
                    <mxGeometry x="970" y="640" width="100" height="40" as="geometry"/>
                </mxCell>
                <mxCell id="23" value="" style="endArrow=none;html=1;rounded=0;exitX=0.25;exitY=1;exitDx=0;exitDy=0;entryX=1;entryY=0;entryDx=0;entryDy=0;strokeColor=#028090;fontColor=#E4FDE1;labelBackgroundColor=#114B5F;" parent="1" source="17" target="22" edge="1">
                    <mxGeometry relative="1" as="geometry">
                        <mxPoint x="1249" y="600" as="sourcePoint"/>
                        <mxPoint x="1189" y="600" as="targetPoint"/>
                    </mxGeometry>
                </mxCell>
                <mxCell id="25" value="machine learning" style="ellipse;whiteSpace=wrap;html=1;align=center;fillColor=#F45B69;strokeColor=#028090;fontColor=#E4FDE1;" parent="1" vertex="1">
                    <mxGeometry x="939" y="570" width="100" height="40" as="geometry"/>
                </mxCell>
                <mxCell id="26" value="" style="endArrow=none;html=1;rounded=0;exitX=1;exitY=0.5;exitDx=0;exitDy=0;strokeColor=#028090;fontColor=#E4FDE1;labelBackgroundColor=#114B5F;" parent="1" source="25" target="17" edge="1">
                    <mxGeometry relative="1" as="geometry">
                        <mxPoint x="1259" y="610" as="sourcePoint"/>
                        <mxPoint x="1199" y="610" as="targetPoint"/>
                    </mxGeometry>
                </mxCell>
                <mxCell id="42" value="&lt;u&gt;SID&lt;/u&gt;" style="ellipse;whiteSpace=wrap;html=1;align=center;fillColor=#F45B69;strokeColor=#028090;fontColor=#E4FDE1;" parent="1" vertex="1">
                    <mxGeometry x="1219" y="510" width="100" height="40" as="geometry"/>
                </mxCell>
                <mxCell id="45" value="" style="endArrow=none;html=1;rounded=0;exitX=0;exitY=1;exitDx=0;exitDy=0;strokeColor=#028090;fontColor=#E4FDE1;labelBackgroundColor=#114B5F;entryX=1;entryY=0;entryDx=0;entryDy=0;" parent="1" source="42" target="17" edge="1">
                    <mxGeometry relative="1" as="geometry">
                        <mxPoint x="1269" y="600" as="sourcePoint"/>
                        <mxPoint x="1203.0046609406727" y="599.998784940728" as="targetPoint"/>
                    </mxGeometry>
                </mxCell>
                <mxCell id="46" value="&lt;u&gt;Username&lt;/u&gt;" style="ellipse;whiteSpace=wrap;html=1;align=center;fillColor=#F45B69;strokeColor=#028090;fontColor=#E4FDE1;" parent="1" vertex="1">
                    <mxGeometry x="709" y="420" width="100" height="40" as="geometry"/>
                </mxCell>
                <mxCell id="47" value="" style="endArrow=none;html=1;rounded=0;entryX=0;entryY=0.75;entryDx=0;entryDy=0;strokeColor=#028090;fontColor=#E4FDE1;labelBackgroundColor=#114B5F;exitX=1;exitY=0.5;exitDx=0;exitDy=0;" parent="1" source="46" target="2atE8d0dwEe4wlXLHkkS-1" edge="1">
                    <mxGeometry relative="1" as="geometry">
                        <mxPoint x="822.1267812518167" y="480.59714999709377" as="sourcePoint"/>
                        <mxPoint x="860" y="420" as="targetPoint"/>
                    </mxGeometry>
                </mxCell>
                <mxCell id="48" value="&lt;span style=&quot;color: rgb(240 , 240 , 240)&quot;&gt;purchase&lt;/span&gt;" style="shape=rhombus;perimeter=rhombusPerimeter;whiteSpace=wrap;html=1;align=center;fillColor=#F45B69;strokeColor=#028090;fontColor=#E4FDE1;" parent="1" vertex="1">
                    <mxGeometry x="960" y="460" width="120" height="60" as="geometry"/>
                </mxCell>
                <mxCell id="50" value="&lt;span style=&quot;color: rgb(240 , 240 , 240)&quot;&gt;Store&lt;/span&gt;" style="rounded=1;arcSize=10;whiteSpace=wrap;html=1;align=center;fillColor=#F45B69;strokeColor=#028090;fontColor=#E4FDE1;" parent="1" vertex="1">
                    <mxGeometry x="1093" y="570" width="100" height="40" as="geometry"/>
                </mxCell>
                <mxCell id="57" value="" style="endArrow=none;html=1;rounded=0;shape=arrow;exitX=0;exitY=0.5;exitDx=0;exitDy=0;" parent="1" source="2atE8d0dwEe4wlXLHkkS-6" edge="1">
                    <mxGeometry relative="1" as="geometry">
                        <mxPoint x="1106" y="430" as="sourcePoint"/>
                        <mxPoint x="950" y="390" as="targetPoint"/>
                    </mxGeometry>
                </mxCell>
                <mxCell id="58" value="" style="endArrow=none;html=1;rounded=0;shape=arrow;entryX=0.5;entryY=1;entryDx=0;entryDy=0;exitX=0.5;exitY=0;exitDx=0;exitDy=0;" parent="1" source="2atE8d0dwEe4wlXLHkkS-30" target="2atE8d0dwEe4wlXLHkkS-2" edge="1">
                    <mxGeometry relative="1" as="geometry">
                        <mxPoint x="1220" y="390" as="sourcePoint"/>
                        <mxPoint x="1190" y="450" as="targetPoint"/>
                    </mxGeometry>
                </mxCell>
                <mxCell id="59" value="" style="endArrow=none;html=1;rounded=0;entryX=0;entryY=0.5;entryDx=0;entryDy=0;shape=link;" parent="1" target="2atE8d0dwEe4wlXLHkkS-2" edge="1">
                    <mxGeometry relative="1" as="geometry">
                        <mxPoint x="1220" y="390" as="sourcePoint"/>
                        <mxPoint x="970" y="410" as="targetPoint"/>
                    </mxGeometry>
                </mxCell>
                <mxCell id="62" value="" style="endArrow=none;html=1;rounded=0;entryX=0.5;entryY=0;entryDx=0;entryDy=0;shape=link;" parent="1" target="2atE8d0dwEe4wlXLHkkS-29" edge="1">
                    <mxGeometry relative="1" as="geometry">
                        <mxPoint x="1439" y="669.4300000000001" as="sourcePoint"/>
                        <mxPoint x="1558" y="669.4300000000001" as="targetPoint"/>
                    </mxGeometry>
                </mxCell>
                <mxCell id="64" value="" style="endArrow=none;html=1;rounded=0;shape=arrow;exitX=0;exitY=0;exitDx=0;exitDy=0;entryX=0.75;entryY=1;entryDx=0;entryDy=0;" parent="1" source="48" target="2atE8d0dwEe4wlXLHkkS-1" edge="1">
                    <mxGeometry relative="1" as="geometry">
                        <mxPoint x="1109" y="400" as="sourcePoint"/>
                        <mxPoint x="960" y="400" as="targetPoint"/>
                    </mxGeometry>
                </mxCell>
                <mxCell id="65" value="" style="endArrow=none;html=1;rounded=0;shape=arrow;exitX=1;exitY=1;exitDx=0;exitDy=0;entryX=0.25;entryY=0;entryDx=0;entryDy=0;" parent="1" source="48" target="50" edge="1">
                    <mxGeometry relative="1" as="geometry">
                        <mxPoint x="1119" y="410" as="sourcePoint"/>
                        <mxPoint x="970" y="410" as="targetPoint"/>
                    </mxGeometry>
                </mxCell>
                <mxCell id="66" value="" style="endArrow=none;html=1;rounded=0;shape=arrow;entryX=0.5;entryY=1;entryDx=0;entryDy=0;exitX=0.5;exitY=0;exitDx=0;exitDy=0;" parent="1" source="2atE8d0dwEe4wlXLHkkS-36" target="2atE8d0dwEe4wlXLHkkS-1" edge="1">
                    <mxGeometry relative="1" as="geometry">
                        <mxPoint x="920" y="560" as="sourcePoint"/>
                        <mxPoint x="980" y="420" as="targetPoint"/>
                    </mxGeometry>
                </mxCell>
                <mxCell id="67" value="" style="endArrow=none;html=1;rounded=0;entryX=0.5;entryY=0;entryDx=0;entryDy=0;shape=link;exitX=0.5;exitY=1;exitDx=0;exitDy=0;" parent="1" source="2atE8d0dwEe4wlXLHkkS-36" target="2atE8d0dwEe4wlXLHkkS-35" edge="1">
                    <mxGeometry relative="1" as="geometry">
                        <mxPoint x="750" y="720" as="sourcePoint"/>
                        <mxPoint x="869" y="720" as="targetPoint"/>
                    </mxGeometry>
                </mxCell>
                <mxCell id="68" value="Firstname" style="ellipse;whiteSpace=wrap;html=1;align=center;fillColor=#F45B69;strokeColor=#028090;fontColor=#E4FDE1;" parent="1" vertex="1">
                    <mxGeometry x="830" y="230" width="100" height="40" as="geometry"/>
                </mxCell>
            </root>
        </mxGraphModel>
    </diagram>
</mxfile>